HIERARCHY
ROOT Hips
{
	OFFSET -3.958830 18.904000 13.208200
	CHANNELS 6 Xposition Yposition Zposition Zrotation Yrotation Xrotation 
	JOINT LHipJoint
	{
		OFFSET 0.000000 0.000000 0.000000
		CHANNELS 3 Zrotation Yrotation Xrotation
		JOINT LeftUpLeg
		{
			OFFSET 1.800000 -1.400000 0.085000
			CHANNELS 3 Zrotation Yrotation Xrotation
			JOINT LeftLeg
			{
				OFFSET 2.215000 -6.000000 0.000000
				CHANNELS 3 Zrotation Yrotation Xrotation
				JOINT LeftFoot
				{
					OFFSET 2.500000 -6.900000 0.000000
					CHANNELS 3 Zrotation Yrotation Xrotation
					JOINT LeftToeBase
					{
						OFFSET 0.200000 -0.500000 1.950000
						CHANNELS 3 Zrotation Yrotation Xrotation
						End Site
						{
							OFFSET 0.000000 0.000000 0.000000
						}
					}
				}
			}
		}
	}
	JOINT RHipJoint
	{
		OFFSET 0.000000 0.000000 0.000000
		CHANNELS 3 Zrotation Yrotation Xrotation
		JOINT RightUpLeg
		{
			OFFSET -1.800000 -1.400000 0.085000
			CHANNELS 3 Zrotation Yrotation Xrotation
			JOINT RightLeg
			{
				OFFSET -2.215000 -6.000000 0.000000
				CHANNELS 3 Zrotation Yrotation Xrotation
				JOINT RightFoot
				{
					OFFSET -2.500000 -6.900000 0.000000
					CHANNELS 3 Zrotation Yrotation Xrotation
					JOINT RightToeBase
					{
						OFFSET -0.200000 -0.500000 1.950000
						CHANNELS 3 Zrotation Yrotation Xrotation
						End Site
						{
							OFFSET 0.000000 0.000000 0.000000
						}
					}
				}
			}
		}
	}
	JOINT LowerBack
	{
		OFFSET 0.000000 0.000000 0.000000
		CHANNELS 3 Zrotation Yrotation Xrotation
		JOINT Spine
		{
			OFFSET -0.087000 1.940000 -0.288900
			CHANNELS 3 Zrotation Yrotation Xrotation
			JOINT Spine1
			{
				OFFSET 0.000000 1.950000 0.060000
				CHANNELS 3 Zrotation Yrotation Xrotation
				JOINT Neck
				{
					OFFSET 0.000000 0.000000 0.000000
					CHANNELS 3 Zrotation Yrotation Xrotation
					JOINT Neck1
					{
						OFFSET 0.000000 1.600000 0.340000
						CHANNELS 3 Zrotation Yrotation Xrotation
						JOINT Head
						{
							OFFSET 0.000000 1.667000 -0.240000
							CHANNELS 3 Zrotation Yrotation Xrotation
							End Site
							{
								OFFSET 0.000000 0.000000 0.000000
							}
						}
					}
				}
				JOINT LeftShoulder
				{
					OFFSET 0.000000 0.000000 0.000000
					CHANNELS 3 Zrotation Yrotation Xrotation
					JOINT LeftArm
					{
						OFFSET 2.700000 1.550000 -0.730000
						CHANNELS 3 Zrotation Yrotation Xrotation
						JOINT LeftForeArm
						{
							OFFSET 5.450000 0.000000 0.000000
							CHANNELS 3 Zrotation Yrotation Xrotation
							JOINT LeftHand
							{
								OFFSET 3.450000 0.000000 0.000000
								CHANNELS 3 Zrotation Yrotation Xrotation
								JOINT LeftHandIndex1
								{
									OFFSET 0.750000 0.000000 0.000000
									CHANNELS 3 Zrotation Yrotation Xrotation
									End Site
									{
										OFFSET 0.000000 0.000000 0.000000
									}
								}
							}
						}
					}
				}
				JOINT RightShoulder
				{
					OFFSET 0.000000 0.000000 0.000000
					CHANNELS 3 Zrotation Yrotation Xrotation
					JOINT RightArm
					{
						OFFSET -2.700000 1.550000 -0.730000
						CHANNELS 3 Zrotation Yrotation Xrotation
						JOINT RightForeArm
						{
							OFFSET -5.450000 0.000000 0.000000
							CHANNELS 3 Zrotation Yrotation Xrotation
							JOINT RightHand
							{
								OFFSET -3.450000 0.000000 0.000000
								CHANNELS 3 Zrotation Yrotation Xrotation
								JOINT RightHandIndex1
								{
									OFFSET -0.750000 0.000000 0.000000
									CHANNELS 3 Zrotation Yrotation Xrotation
									End Site
									{
										OFFSET 0.000000 0.000000 0.000000
									}
								}
							}
						}
					}
				}
			}
		}
	}
}
MOTION
Frames: 4
Frame Time: 0.016667
21.261100 15.710760 -6.716280 2.963772 25.056356 -10.536165 -15.591326 13.432080 2.990928 14.680857 -1.017783 -1.658501 -12.223536 19.911455 48.187916 1.243033 10.927738 0.774974 0.845160 0.667470 0.586280 17.840770 -9.223830 4.400854 -21.377919 3.451124 -42.891981 8.302343 -3.833838 12.815218 -0.460783 -2.019493 3.393169 0.227320 -0.279080 0.204170 -2.778225 -2.734870 -9.020784 10.229028 -1.838856 33.726594 1.810532 -0.019507 12.695919 4.518794 1.600009 -19.187137 1.976526 -14.162215 50.031164 11.309050 -14.710040 -34.119400 -23.327838 -27.136491 8.734704 -34.586672 -6.046884 -5.442230 14.042567 -17.793524 -3.496063 -3.006111 2.960772 0.865690 -0.512950 0.571290 0.258110 14.888061 33.510997 12.854740 28.391342 18.298698 -10.495440 -25.249137 14.023587 -5.276699 2.437918 -1.402594 0.116090 0.283900 -0.277970 -0.070900 
21.239150 15.712400 -6.635390 3.464936 25.392931 -10.369158 -15.584853 13.564479 2.955638 14.124095 -1.211570 -1.123084 -11.062997 19.074097 48.320765 1.109441 10.885564 0.766684 0.712080 0.461580 0.506910 17.825441 -9.186374 4.451863 -21.820001 3.341470 -42.470233 9.390398 -3.984951 12.362810 -0.417741 -2.110951 3.349153 0.140360 -0.223150 0.215910 -2.780677 -3.012839 -9.037123 10.383941 -2.612087 34.914055 1.025518 -0.380836 12.244646 4.423881 1.055572 -19.890404 0.468157 -13.689557 50.848660 12.759980 -15.363090 -34.433920 -23.917199 -28.016392 9.196262 -33.870709 -4.906020 -5.395224 15.088660 -16.662587 -3.587285 -3.077118 2.923491 0.932080 -0.493830 0.507460 0.180010 15.495335 34.403578 13.266434 27.525261 17.558989 -10.910814 -25.603561 13.162800 -4.986549 2.421101 -1.328572 0.037590 0.290180 -0.140020 -0.115620 
21.212720 15.689910 -6.484200 4.064254 25.772648 -9.746460 -15.592844 13.531631 2.906437 14.407271 -1.470159 0.032736 -11.411511 18.751143 47.153714 1.164581 10.721482 0.855385 0.677520 0.419630 0.483730 17.836330 -8.929335 4.733676 -24.886046 3.000167 -42.216497 14.633650 -4.903981 13.050862 -0.482011 -2.837014 3.094410 0.093280 -0.227750 0.207210 -2.757776 -3.309002 -9.186131 10.558808 -3.277010 35.102065 0.543977 -0.881162 12.459200 4.331242 0.646947 -21.439491 -0.898739 -13.431722 51.074821 12.519140 -16.280900 -32.505730 -24.324043 -29.550058 9.912993 -31.364398 -4.058339 -4.413971 14.959995 -12.745477 -2.807246 -3.096191 2.971063 0.887850 -0.495570 0.490740 0.187330 15.854364 35.815443 14.326600 26.348121 15.096856 -11.195737 -26.360138 11.236088 -4.659188 2.521598 -1.391545 0.060800 0.253350 -0.155850 -0.094280 
21.178120 15.669960 -6.325030 4.281040 25.424040 -9.869986 -15.615015 13.653527 2.936387 15.765918 -1.458024 1.740995 -12.145486 18.877894 45.868088 1.157400 10.763829 0.863690 0.623380 0.327970 0.442310 17.812891 -8.773217 4.766516 -25.352952 3.329702 -41.586038 17.000728 -5.568957 14.640435 -0.496373 -3.213093 2.965295 0.051100 -0.185220 0.211790 -2.668437 -3.808630 -9.228209 10.987740 -3.940190 35.546185 0.825442 -1.487838 13.489794 4.491914 -1.341292 -22.526991 -5.409822 -11.510493 50.344540 12.835150 -16.564150 -32.121400 -22.653564 -30.075315 9.883439 -31.031668 -4.577078 -3.243927 13.956220 -9.250442 -2.208417 -3.164181 2.943493 0.897860 -0.485620 0.452840 0.173680 14.156140 37.455066 15.365616 23.794322 13.063707 -9.574721 -23.645805 7.618666 -3.072530 2.602471 -1.324170 0.033040 0.261840 -0.106410 -0.094360 
